<svg version="1.1" id="Layer_1" xmlns="http://www.w3.org/2000/svg" xmlns:xlink="http://www.w3.org/1999/xlink" x="0px" y="0px" viewBox="0 0 170.08 170.08" fill="CurrentColor" style="enable-background:new 0 0 170.08 170.08;" xml:space="preserve">
<g id="CIRCLE_00000007408603872755548490000010009784945963220365_">
	<circle class="st0" cx="85.15" cy="91.67" r="22.16"></circle>
</g>
<g id="CIRCLE_00000150815129353161086380000015100568230962841225_">
	<circle class="st0" cx="44.02" cy="53.89" r="22.16"></circle>
</g>
<g id="CIRCLE_00000037658417487894325450000012297333877083155380_">
	<circle class="st0" cx="125.98" cy="54.79" r="22.16"></circle>
</g>
<g id="CIRCLE_00000133527922704346074560000012315381713496173460_">
	<circle class="st0" cx="85.15" cy="24.87" r="22.16"></circle>
</g>
<g id="LWPOLYLINE_00000060019868170236489530000000470869182720587407_">
	<path class="st0" d="M62.53,121.06h45.24c6.33,0,11.46,5.13,11.46,11.46v20.69c0,1.39-0.67,2.7-1.8,3.51
		c-19.29,13.85-45.27,13.85-64.56,0c-1.13-0.81-1.8-2.12-1.8-3.51v-20.69C51.07,126.19,56.2,121.06,62.53,121.06z"></path>
</g>
<g id="LWPOLYLINE_00000060022443212616538920000003340029204884852112_">
	<path class="st0" d="M55.76,91.67c0-2.84,0.41-5.67,1.22-8.39H21.4c-6.33,0-11.46,5.13-11.46,11.46v20.69c0,1.39,0.67,2.7,1.8,3.51
		c9.43,6.78,20.76,10.41,32.38,10.39c1.55-8.96,9.32-15.51,18.42-15.51h3.32C59.44,108.25,55.76,100.17,55.76,91.67z"></path>
</g>
<g id="LWPOLYLINE_00000085242964490263950300000007535683173924605067_">
	<path class="st0" d="M160.07,95.64c0-6.33-5.13-11.46-11.46-11.46h-35.03c0.64,2.44,0.97,4.96,0.97,7.49
		c0,8.5-3.68,16.58-10.09,22.16h3.32c9.44,0,17.4,7.04,18.55,16.41c11.47-0.07,22.63-3.7,31.94-10.39c1.13-0.81,1.8-2.12,1.8-3.51
		C160.07,116.33,160.07,95.64,160.07,95.64z"></path>
</g>
</svg>