<svg version="1.1" id="Layer_1" xmlns="http://www.w3.org/2000/svg" xmlns:xlink="http://www.w3.org/1999/xlink" x="0px" y="0px" viewBox="0 0 170.08 170.08" fill="CurrentColor" style="enable-background:new 0 0 170.08 170.08;" xml:space="preserve">
<g id="LWPOLYLINE_00000068677923524226658150000003180681014768258233_">
	<path class="st0" d="M112.41,34.22l4.32-0.19c-0.8-18.08-16.11-32.09-34.19-31.29C65.35,3.5,51.69,17.41,51.22,34.6l4.32,0.12
		c0.4-14.92,12.27-27,27.18-27.66C98.42,6.36,111.71,18.52,112.41,34.22z"></path>
</g>
<g id="LWPOLYLINE_00000155834092051542705920000009569775416183036085_">
	<path class="st0" d="M65.2,38.06H52.75c-1.18,0-2.14,0.96-2.14,2.14v11.74c0,1.18,0.96,2.14,2.14,2.14H65.2V38.06z"></path>
</g>
<g id="LWPOLYLINE_00000178907375767038991020000004229708447986246550_">
	<path class="st0" d="M81.67,55.43h9.01c1.18,0,2.14,0.96,2.14,2.14v3.27c0,1.18-0.96,2.14-2.14,2.14h-9.01
		c-1.18,0-2.14-0.96-2.14-2.14v-3.27C79.53,56.39,80.49,55.43,81.67,55.43z"></path>
</g>
<g id="LWPOLYLINE_00000154418490048273180570000013410348386884321443_">
	<polygon class="st0" points="92.82,57.07 112.01,57.07 106.75,61.35 92.82,61.35 	"></polygon>
</g>
<g id="CIRCLE_00000075880939934464998200000002701648993158687400_">
	<circle class="st0" cx="85" cy="130.04" r="7.54"></circle>
</g>
<path class="st0" d="M131.47,92.04c-0.28-0.02-0.55-0.04-0.83-0.04H39.36c-5.37,0-9.73,4.36-9.73,9.73c0,0.28,0.01,0.55,0.04,0.83
	l5.08,59.71h100.48l5.11-59.71C140.79,97.21,136.83,92.5,131.47,92.04z M85,141.52c-6.34,0-11.48-5.14-11.48-11.48
	s5.14-11.48,11.48-11.48c6.34,0,11.48,5.14,11.48,11.48S91.34,141.52,85,141.52z"></path>
<g id="LWPOLYLINE_00000111885216653476023770000011151826973023776945_">
	<path class="st0" d="M31.75,162.26h106.5c1.34,0,2.43,1.09,2.43,2.43l0,0c0,1.34-1.09,2.43-2.43,2.43H31.75
		c-1.34,0-2.43-1.09-2.43-2.43l0,0C29.33,163.35,30.41,162.26,31.75,162.26z"></path>
</g>
<g id="LWPOLYLINE_00000107574067390170677680000002269054233279330443_">
	<path class="st0" d="M126.57,88.42c-6.46-8.64-16.07-14.39-26.75-15.98c-1.45,2.4-3.46,4.41-5.87,5.84
		c-8.07,4.81-18.52,2.17-23.33-5.91c-10.85,1.5-20.64,7.28-27.19,16.04H126.57H43.43H126.57z"></path>
</g>
<g id="LWPOLYLINE_00000066481545389297422390000005580717330035426976_">
	<path class="st0" d="M105.28,38.06h12.45c1.18,0,2.14,0.96,2.14,2.14v11.74c0,1.18-0.96,2.14-2.14,2.14h-12.45V38.06z"></path>
</g>
<g id="LWPOLYLINE_00000063612338113254275180000011101953235890546833_">
	<path class="st0" d="M103.36,38.66c-3.09-1.29-5.89-3.19-8.22-5.58c-7.75,3.18-15.8,5.57-24.03,7.12l-5.04-0.08l2.29,17.45
		c1.67,8.67,10.05,14.35,18.72,12.68c2.24-0.43,4.35-1.33,6.21-2.65c1.57-1.11,2.81-2.62,3.59-4.37h-2.97
		c-0.76,1.03-1.96,1.64-3.24,1.64h-9.01c-2.22,0-4.02-1.8-4.02-4.02v-3.27c0-2.22,1.8-4.02,4.02-4.02h9.01
		c1.28,0,2.48,0.61,3.24,1.64h5.2L103.36,38.66z"></path>
</g>
<g id="LWPOLYLINE_00000079468222559373856660000005888262647356607164_">
	<path class="st0" d="M96.25,28.3c2.12,2.81,4.91,5.04,8.12,6.48c2.28-4.08,1.06-9.22-2.8-11.84c-5.97-4.06-12.88-6.55-20.07-7.22
		c-7.81-0.73-14.95,4.43-16.71,12.07c-0.14,0.62-0.17,1.27-0.09,1.9l0.85,6.46l5.21,0.08C79.53,34.54,88.08,31.88,96.25,28.3z"></path>
</g>
</svg>