<svg version="1.1" id="Layer_1" xmlns="http://www.w3.org/2000/svg" xmlns:xlink="http://www.w3.org/1999/xlink" x="0px" y="0px" viewBox="0 0 170.08 170.08" fill="CurrentColor" style="enable-background:new 0 0 170.08 170.08;" xml:space="preserve">

<path class="st0" d="M89.87,43.48H66.25c-1.3,0-2.35,1.05-2.35,2.35v24.12c0,1.3,1.05,2.35,2.35,2.35h23.61
	c1.3,0,2.35-1.05,2.35-2.35V45.83C92.21,44.53,91.16,43.48,89.87,43.48z M86.05,66.13H70.07V49.64h15.98V66.13z"></path>
<path class="st0" d="M89.87,82.45H66.25c-1.3,0-2.35,1.05-2.35,2.35v24.12c0,1.3,1.05,2.35,2.35,2.35h23.61
	c1.3,0,2.35-1.05,2.35-2.35V84.8C92.21,83.5,91.16,82.45,89.87,82.45z M86.05,105.1H70.07V88.61h15.98V105.1z"></path>
<path class="st0" d="M89.87,121.42H66.25c-1.3,0-2.35,1.05-2.35,2.35v24.12c0,1.3,1.05,2.35,2.35,2.35h23.61
	c1.3,0,2.35-1.05,2.35-2.35v-24.12C92.21,122.47,91.16,121.42,89.87,121.42z M86.05,144.07H70.07v-16.48h15.98V144.07z"></path>
<path class="st0" d="M148.09,26.82H48.81c-1.57,0-2.84,1.27-2.84,2.84v134.62c0,1.57,1.27,2.84,2.84,2.84h99.29
	c1.57,0,2.84-1.27,2.84-2.84V29.66C150.93,28.09,149.66,26.82,148.09,26.82z M144,160.18H52.9V33.76H144V160.18z"></path>
<g id="LWPOLYLINE_00000174588835579644113770000007017170831592235965_">
	<path class="st0" d="M105.95,48.6h21.78c1.4,0,2.54,1.14,2.54,2.54l0,0c0,1.4-1.14,2.54-2.54,2.54h-21.78
		c-1.4,0-2.54-1.14-2.54-2.54l0,0C103.41,49.74,104.55,48.6,105.95,48.6z"></path>
</g>
<g id="LWPOLYLINE_00000013154288523850115970000009909892810608598708_">
	<path class="st0" d="M105.95,67.17h21.78c1.4,0,2.54-1.14,2.54-2.54l0,0c0-1.4-1.14-2.54-2.54-2.54h-21.78
		c-1.4,0-2.54,1.14-2.54,2.54l0,0C103.41,66.04,104.55,67.17,105.95,67.17z"></path>
</g>
<g id="LWPOLYLINE_00000003808575102369967210000015698502016471212955_">
	<path class="st0" d="M105.95,87.57h21.78c1.4,0,2.54,1.14,2.54,2.54l0,0c0,1.4-1.14,2.54-2.54,2.54h-21.78
		c-1.4,0-2.54-1.14-2.54-2.54l0,0C103.41,88.7,104.55,87.57,105.95,87.57z"></path>
</g>
<g id="LWPOLYLINE_00000183233312410215635880000015277691256166129055_">
	<path class="st0" d="M105.95,106.14h21.78c1.4,0,2.54-1.14,2.54-2.54l0,0c0-1.4-1.14-2.54-2.54-2.54h-21.78
		c-1.4,0-2.54,1.14-2.54,2.54l0,0C103.41,105.01,104.55,106.14,105.95,106.14z"></path>
</g>
<g id="LWPOLYLINE_00000038406360553402260910000001662263579313300645_">
	<path class="st0" d="M105.95,126.54h21.78c1.4,0,2.54,1.14,2.54,2.54l0,0c0,1.4-1.14,2.54-2.54,2.54h-21.78
		c-1.4,0-2.54-1.14-2.54-2.54l0,0C103.41,127.67,104.55,126.54,105.95,126.54z"></path>
</g>
<g id="LWPOLYLINE_00000005974732777358995590000015068458780182520968_">
	<path class="st0" d="M105.95,145.11h21.78c1.4,0,2.54-1.14,2.54-2.54l0,0c0-1.4-1.14-2.54-2.54-2.54h-21.78
		c-1.4,0-2.54,1.14-2.54,2.54l0,0C103.41,143.98,104.55,145.11,105.95,145.11z"></path>
</g>
<g id="LWPOLYLINE_00000101097480324759826370000018060400853587831460_">
	<path class="st0" d="M118.44,5.55c0-1.57-1.27-2.84-2.84-2.84H16.32c-1.57,0-2.84,1.27-2.84,2.84v134.62
		c0,1.57,1.27,2.84,2.84,2.84h29.65v-6.94H20.41V9.64h85.57L48.81,26.82h24.1l38.6-11.6v11.6h6.94V5.55z"></path>
</g>
</svg>