<svg version="1.1" id="Layer_1" xmlns="http://www.w3.org/2000/svg" xmlns:xlink="http://www.w3.org/1999/xlink" x="0px" y="0px" viewBox="0 0 170.08 170.08" fill="CurrentColor" style="enable-background:new 0 0 170.08 170.08;" xml:space="preserve">

<path class="st0" d="M90.16,44.79c-13.31-0.54-24.53,9.8-25.07,23.11c-0.28,6.94,2.44,13.66,7.47,18.45l-8.53,18.47l24.17-11.85
	c13.31,0.54,24.53-9.8,25.07-23.11C113.81,56.56,103.46,45.33,90.16,44.79z M76.72,73.4c-2.5,0-4.52-2.02-4.52-4.52
	s2.02-4.52,4.52-4.52s4.52,2.02,4.52,4.52S79.21,73.4,76.72,73.4z M89.17,73.4c-2.5,0-4.52-2.02-4.52-4.52s2.02-4.52,4.52-4.52
	s4.52,2.02,4.52,4.52S91.67,73.4,89.17,73.4z M101.63,73.4c-2.5,0-4.52-2.02-4.52-4.52s2.02-4.52,4.52-4.52s4.52,2.02,4.52,4.52
	S104.13,73.4,101.63,73.4z"></path>
<g id="LWPOLYLINE_00000164478777462938306370000016017015007854998156_">
	<path class="st0" d="M83.35,112.96h15.42c3.81,0,6.89,3.09,6.89,6.89l0,0c0,3.81-3.09,6.89-6.89,6.89H83.35
		c-3.81,0-6.89-3.09-6.89-6.89l0,0C76.45,116.05,79.54,112.96,83.35,112.96z"></path>
</g>
<g id="LWPOLYLINE_00000036241796363567925920000015901899796192549801_">
	<path class="st0" d="M134.78,90.8c-1.87-0.52-3.44-1.81-4.31-3.55c-1.48,13.28-10.61,24.45-23.33,28.54
		c0.62,1.27,0.93,2.66,0.93,4.06c0,0.23-0.01,0.45-0.02,0.68C121.78,116.35,132.07,104.9,134.78,90.8z"></path>
</g>
<g id="LWPOLYLINE_00000181777413198531215990000003424160221668395199_">
	<path class="st0" d="M95.72,11.29c-5.89-0.99-11.9-0.99-17.79,0c-3.77,0.63-6.31,4.2-5.68,7.97c0.06,0.34,0.14,0.67,0.25,1l0,0
		c1.06,3.26,4.35,5.24,7.73,4.68c4.37-0.74,8.82-0.74,13.19,0c3.38,0.57,6.66-1.42,7.73-4.68l0,0c1.19-3.63-0.8-7.54-4.43-8.73
		C96.39,11.43,96.06,11.34,95.72,11.29z"></path>
</g>
<g id="LWPOLYLINE_00000103264213931536255470000002960024470610593679_">
	<path class="st0" d="M104.66,17.25c0.12,1.35-0.04,2.72-0.46,4.01c-0.32,0.99-0.8,1.92-1.4,2.77c16.18,6.45,26.89,21.99,27.17,39.4
		c-0.15,0.58-0.23,1.18-0.23,1.78v18.95c0,3.81,3.09,6.89,6.89,6.89s6.89-3.09,6.89-6.89V65.2c0-3-1.94-5.65-4.79-6.56l-2.1,13.2
		V58.31C134.46,39.73,122.14,23.9,104.66,17.25z"></path>
</g>
<g id="LWPOLYLINE_00000053527425492711862260000014825981520105570737_">
	<path class="st0" d="M70.85,24.02c-0.61-0.84-1.08-1.78-1.4-2.77c-0.42-1.29-0.58-2.65-0.46-4.01
		c-17.48,6.65-29.8,22.48-31.96,41.06v13.53l-2.1-13.2c-2.85,0.91-4.79,3.57-4.79,6.56v18.95c0,3.81,3.09,6.89,6.89,6.89
		s6.89-3.09,6.89-6.89V65.2c0-0.6-0.08-1.2-0.23-1.78C43.96,46.01,54.68,30.47,70.85,24.02z"></path>
</g>
<g>
	<path class="st0" d="M27.8,149.41c-0.3,1.03-0.91,2.72-1.3,3.42c-0.66,0.15-2.62,0.62-4.28,0.62c-5.75,0-8.32-3.75-8.32-7.16
		c0-4.54,3.71-7.51,8.89-7.51c1.91,0,3.52,0.52,4.14,0.62c0.18,1.22,0.34,2.15,0.48,3.37l-0.67,0.15c-0.61-2.39-2.1-3.33-4.53-3.33
		c-3.8,0-5.83,3.03-5.83,6.24c0,4.06,2.52,6.77,6.02,6.77c2.31,0,3.58-1.22,4.76-3.45L27.8,149.41z"></path>
	<path class="st0" d="M37.91,153.1v-0.62c1.39-0.19,1.58-0.38,1.28-1.25c-0.31-0.85-0.72-1.93-1.19-3.17h-4.79
		c-0.37,0.99-0.67,1.83-0.95,2.68c-0.48,1.31-0.3,1.56,1.39,1.74v0.62h-4.92v-0.62c1.45-0.22,1.76-0.37,2.55-2.28l4.68-11.24
		l0.78-0.19c1.43,3.81,2.86,7.64,4.34,11.43c0.72,1.9,1.03,2.13,2.48,2.28v0.62H37.91z M35.72,141.74h-0.04
		c-0.72,1.78-1.42,3.62-2.09,5.36h4.08L35.72,141.74z"></path>
	<path class="st0" d="M55.85,149.63c-0.15,0.74-0.61,2.81-0.83,3.47H44.73v-0.62c1.91-0.13,2.1-0.28,2.1-2.17v-8.45
		c0-1.87-0.15-2-2-2.12v-0.65h6.04v0.65c-1.76,0.12-1.97,0.24-1.97,2.12v8.38c0,1.18,0.1,1.59,0.52,1.81
		c0.43,0.24,1.19,0.28,2.07,0.28c1.18,0,1.97-0.13,2.47-0.69c0.42-0.41,0.83-1.12,1.21-2.15L55.85,149.63z"></path>
	<path class="st0" d="M67.97,149.63c-0.15,0.74-0.61,2.81-0.83,3.47H56.85v-0.62c1.91-0.13,2.1-0.28,2.1-2.17v-8.45
		c0-1.87-0.15-2-2-2.12v-0.65h6.04v0.65c-1.76,0.12-1.97,0.24-1.97,2.12v8.38c0,1.18,0.1,1.59,0.52,1.81
		c0.43,0.24,1.19,0.28,2.07,0.28c1.18,0,1.97-0.13,2.47-0.69c0.42-0.41,0.83-1.12,1.21-2.15L67.97,149.63z"></path>
	<path class="st0" d="M89.02,149.41c-0.3,1.03-0.91,2.72-1.3,3.42c-0.66,0.15-2.62,0.62-4.28,0.62c-5.75,0-8.32-3.75-8.32-7.16
		c0-4.54,3.71-7.51,8.89-7.51c1.91,0,3.52,0.52,4.14,0.62c0.18,1.22,0.34,2.15,0.48,3.37l-0.67,0.15c-0.61-2.39-2.1-3.33-4.53-3.33
		c-3.8,0-5.83,3.03-5.83,6.24c0,4.06,2.52,6.77,6.02,6.77c2.31,0,3.58-1.22,4.76-3.45L89.02,149.41z"></path>
	<path class="st0" d="M101.85,149.61c-0.15,0.81-0.58,2.8-0.77,3.49H90.14v-0.62c2.01-0.15,2.21-0.35,2.21-2.12v-8.44
		c0-1.97-0.19-2.03-1.92-2.18v-0.65h10.11c0.03,0.56,0.12,1.99,0.21,3.2l-0.69,0.09c-0.21-0.9-0.45-1.4-0.73-1.87
		c-0.33-0.47-0.94-0.62-2.47-0.62h-1.65c-0.73,0-0.78,0.06-0.78,0.71v4.83h2.04c2,0,2.15-0.18,2.43-1.63h0.67v4.23h-0.67
		c-0.31-1.58-0.48-1.69-2.43-1.69h-2.04v3.96c0,1.02,0.12,1.5,0.54,1.77c0.43,0.25,1.27,0.25,2.28,0.25c1.62,0,2.3-0.15,2.8-0.71
		c0.39-0.46,0.8-1.21,1.13-2.08L101.85,149.61z"></path>
	<path class="st0" d="M118.66,139.75c-1.24,0.06-1.77,0.31-1.88,1.3c-0.07,0.69-0.13,1.66-0.13,3.67v8.61h-0.72l-9.79-11.22h-0.03
		l-0.01,5.26c0,1.99,0.09,3,0.15,3.62c0.1,1.12,0.61,1.38,2.15,1.5v0.62h-5.34v-0.62c1.28-0.09,1.85-0.37,1.95-1.44
		c0.09-0.68,0.18-1.69,0.18-3.68v-4.62c0-1.58-0.08-1.69-0.48-2.21c-0.46-0.53-0.94-0.71-1.98-0.78v-0.65h3.43l9.5,10.63h0.06v-5.02
		c0-2-0.09-2.97-0.15-3.59c-0.1-1.02-0.63-1.29-2.22-1.37v-0.65h5.32V139.75z"></path>
	<path class="st0" d="M132.01,142.58c-0.24-1.08-0.48-1.65-0.76-2.02c-0.37-0.5-0.76-0.66-2.46-0.66h-1.52v10.5
		c0,1.71,0.19,1.96,2.31,2.09v0.62h-6.6v-0.62c2.04-0.13,2.24-0.37,2.24-2.09v-10.5h-1.3c-1.94,0-2.4,0.21-2.7,0.66
		c-0.28,0.37-0.48,1-0.76,2.02h-0.67c0.1-1.4,0.21-2.83,0.25-4.02h0.48c0.33,0.54,0.61,0.54,1.27,0.54h9.03
		c0.61,0,0.82-0.13,1.16-0.54h0.48c0,0.99,0.12,2.65,0.22,3.95L132.01,142.58z"></path>
	<path class="st0" d="M145.62,149.61c-0.15,0.81-0.58,2.8-0.77,3.49h-10.94v-0.62c2.01-0.15,2.21-0.35,2.21-2.12v-8.44
		c0-1.97-0.19-2.03-1.92-2.18v-0.65h10.11c0.03,0.56,0.12,1.99,0.21,3.2l-0.69,0.09c-0.21-0.9-0.45-1.4-0.73-1.87
		c-0.33-0.47-0.94-0.62-2.47-0.62h-1.65c-0.73,0-0.78,0.06-0.78,0.71v4.83h2.04c2,0,2.15-0.18,2.43-1.63h0.67v4.23h-0.67
		c-0.31-1.58-0.48-1.69-2.43-1.69h-2.04v3.96c0,1.02,0.12,1.5,0.54,1.77c0.43,0.25,1.27,0.25,2.28,0.25c1.62,0,2.3-0.15,2.8-0.71
		c0.39-0.46,0.8-1.21,1.13-2.08L145.62,149.61z"></path>
	<path class="st0" d="M160.22,153.3c-0.27,0-0.52-0.01-0.79-0.04c-1.8-0.09-2.73-0.56-3.76-1.97c-0.76-1.04-1.49-2.36-2.16-3.39
		c-0.4-0.62-0.79-0.88-1.94-0.88h-0.63v3.36c0,1.81,0.21,1.97,2,2.12v0.62h-6.04v-0.62c1.8-0.15,2.01-0.31,2.01-2.12v-8.54
		c0-1.84-0.19-1.96-1.92-2.08v-0.65h5.71c1.68,0,2.77,0.19,3.62,0.75c0.91,0.56,1.48,1.52,1.48,2.83c0,1.87-1.22,2.99-2.82,3.65
		c0.39,0.71,1.3,2.12,1.97,3.11c0.81,1.13,1.28,1.74,1.8,2.27c0.57,0.63,1.06,0.87,1.57,0.99L160.22,153.3z M151.95,146.29
		c1.12,0,1.86-0.18,2.43-0.62c0.85-0.65,1.19-1.49,1.19-2.65c0-2.31-1.54-3.17-3.19-3.17c-0.67,0-1.03,0.09-1.19,0.21
		c-0.15,0.12-0.24,0.37-0.24,0.93v5.3H151.95z"></path>
</g>
</svg>