<svg version="1.1" id="Layer_1" xmlns="http://www.w3.org/2000/svg" xmlns:xlink="http://www.w3.org/1999/xlink" x="0px" y="0px" viewBox="0 0 170.08 170.08" fill="CurrentColor" style="enable-background:new 0 0 170.08 170.08;" xml:space="preserve">
<g id="CIRCLE_00000149377853535412231920000012996830178762726582_">
	<circle class="st0" cx="39.85" cy="110.1" r="9.74"></circle>
</g>
<g id="CIRCLE_00000054955784665744114280000004161662895899900324_">
	<circle class="st0" cx="68.19" cy="110.1" r="9.74"></circle>
</g>
<g id="CIRCLE_00000161600876029219405200000003747687889972947645_">
	<circle class="st0" cx="95.06" cy="110.1" r="9.74"></circle>
</g>
<path class="st0" d="M92.14,59.59c-22.15-6.35-45.95-3.07-65.56,9.03C3.64,82.8-3.47,112.88,10.7,135.82
	c1.69,2.74,3.65,5.3,5.85,7.66L3.26,161.92c-0.71,0.98-0.49,2.36,0.5,3.07c0.37,0.27,0.82,0.41,1.28,0.41h74.63
	c29.58,0.32,53.83-23.4,54.15-52.99C134.1,87.19,116.73,65.19,92.14,59.59z M79.73,156.55h-61.7l10.32-14.33
	c-4.04-3.01-7.48-6.76-10.13-11.05c-11.6-18.78-5.78-43.41,13-55.02c17.56-10.84,38.89-13.74,58.71-7.99
	c20.67,4.58,35.29,23.03,35.04,44.19C124.68,137.06,104.43,156.84,79.73,156.55z"></path>
<g id="LWPOLYLINE_00000170981495835051146490000002779125332826456717_">
	<path class="st0" d="M77.97,7.59C52.26,13.44,34.62,37.14,36.4,63.45c2.84-1.26,5.76-2.36,8.73-3.29
		c-0.16-21.09,14.45-39.43,35.04-43.99c19.81-5.75,41.13-2.86,58.68,7.97c4.3,2.65,8.06,6.09,11.08,10.14
		c13.19,17.7,9.53,42.75-8.17,55.94l10.32,14.33h-18.75c0.4,2.93,0.56,5.89,0.47,8.85h31.26c1.21,0,2.2-0.98,2.2-2.2
		c0-0.46-0.14-0.91-0.41-1.28l-13.28-18.44c18.4-19.71,17.33-50.61-2.38-69c-2.35-2.2-4.92-4.15-7.66-5.85
		C123.92,4.52,100.12,1.24,77.97,7.59z"></path>
</g>
</svg>
