<svg version="1.1" id="Layer_1" xmlns="http://www.w3.org/2000/svg" xmlns:xlink="http://www.w3.org/1999/xlink" x="0px" y="0px" viewBox="0 0 170.08 170.08" fill="CurrentColor" style="enable-background:new 0 0 170.08 170.08;" xml:space="preserve">

<g id="LWPOLYLINE_00000035494868376214694720000018223978999909269390_">
	<path class="st0" d="M54.6,107.34c1.77,8.48,5.47,16.43,10.82,23.24c4.96,7.1,11.49,12.96,19.08,17.12
		c4.25,2.33,9.35,2.52,13.77,0.53c0.09-0.04,0.18-0.08,0.27-0.12c3.59-1.86,5.67-5.74,5.21-9.76c-0.92-4.96-4.11-9.2-8.61-11.46
		c-4.35-1.24-9.03-0.12-12.36,2.94c-2.86-1.72-5.39-3.95-7.47-6.57c-1.9-2.75-3.29-5.81-4.11-9.05c3.9-2.29,6.33-6.44,6.42-10.97
		c-0.85-4.97-3.98-9.25-8.45-11.58c-3.71-1.61-8.03-0.76-10.86,2.14c-0.07,0.07-0.13,0.15-0.2,0.22
		C54.91,97.66,53.61,102.6,54.6,107.34z"></path>
</g>
<g id="LWPOLYLINE_00000115500164764226321550000017183812361615975068_">
	<path class="st0" d="M27.37,71.84C15.28,74.17,5.67,83.36,2.8,95.33V110c2.68,11.16,11.24,19.97,22.32,22.98h24.06
		c3.05-0.41,5.19-3.22,4.78-6.27c-0.33-2.49-2.29-4.45-4.78-4.78H26.75c-0.24-0.08-0.48-0.17-0.72-0.26
		c-10.49-4.03-15.72-15.81-11.69-26.3s15.81-15.72,26.3-11.69c-0.02-0.06-0.05-0.12-0.07-0.18c-6.06-14.89,1.11-31.88,16-37.93
		s31.88,1.11,37.93,16c2.12,5.21,7.82,8,13.24,6.47c0.63-0.18,1.27-0.3,1.92-0.36c5.92-0.55,11.18,3.8,11.73,9.72
		c0.47,5.01,4.27,9.08,9.24,9.88c7.31,1.18,13.11,6.82,14.48,14.1c1.8,9.54-4.47,18.74-14.02,20.55h-20.37
		c-3.05,0.28-5.3,2.98-5.01,6.04c0.25,2.66,2.35,4.77,5.01,5.01H132c15.65-2.31,26.46-16.86,24.16-32.51
		c-1.82-12.36-11.44-22.11-23.77-24.1c-1.12-12-11.76-20.82-23.76-19.69c-1.32,0.12-2.62,0.37-3.89,0.73
		C96.37,36.85,72.94,26.97,52.4,35.32C37.49,41.38,27.65,55.75,27.37,71.84z"></path>
</g>
<g id="LWPOLYLINE_00000068656129128137529190000015261434708870444160_">
	<path class="st0" d="M114.71,20.23c-2.06,0.5-3.31,2.58-2.81,4.63c0.29,1.2,1.15,2.19,2.3,2.65c21.88,1.53,40.34,16.87,45.84,38.11
		c0.56,1.94,2.59,3.05,4.52,2.49c1.86-0.54,2.97-2.43,2.54-4.32C160.83,39.51,139.73,21.97,114.71,20.23z"></path>
</g>
<g id="LWPOLYLINE_00000018958926416557925600000015583377835227579286_">
	<path class="st0" d="M113.7,34.79c-2-0.23-3.82,1.2-4.05,3.2c-0.23,2,1.2,3.82,3.2,4.05c0.11,0.01,0.23,0.02,0.34,0.02
		c15.62,1.09,28.8,12.04,32.73,27.21c0.55,1.94,2.57,3.06,4.51,2.51c1.87-0.53,2.99-2.44,2.55-4.34
		C148.27,49.25,132.45,36.1,113.7,34.79z"></path>
</g>
</svg>