<svg version="1.1" id="Layer_1" xmlns="http://www.w3.org/2000/svg" xmlns:xlink="http://www.w3.org/1999/xlink" x="0px" y="0px" viewBox="0 0 170.08 170.08" fill="CurrentColor" style="enable-background:new 0 0 170.08 170.08;" xml:space="preserve">
<style type="text/css">
	.f105-1{fill:#FFFFFF;}
	.f105-2{font-family:'AdobeArabic-Regular';}
	.f105-3{font-size:104.5167px;}
</style>
<g id="LWPOLYLINE_00000176727770204966794090000011189939552827403657_">
	<path class="st0" d="M84.26,165.32c7.03-2.95,11.07-10.38,9.73-17.88c-2.06-8.17-7.82-14.9-15.57-18.19
		c-7.38-1.6-15.07,0.75-20.29,6.21c-10.9-5.65-19.12-15.4-22.86-27.09c5.45-4.81,8.96-11.44,9.87-18.65
		c0.13-1.01,0.13-2.03,0.02-3.04c-0.98-8.72-7.02-16.03-15.4-18.64c-1.77-0.55-3.64-0.71-5.48-0.48c-2.5,0.32-4.94,0.95-7.28,1.88
		c-4.99,1.97-8.24,6.83-8.15,12.2c0.6,35.86,21.58,68.24,54.06,83.45c7.33,3.43,15.85,3.22,23.01-0.58
		c0.15-0.08,0.29-0.16,0.44-0.24"></path>
</g>
<g id="LWPOLYLINE_00000101097034372473786500000015295522400151388566_">
	<path class="st0" d="M89.4,22.35c-19.65,3.61-32.65,22.47-29.04,42.11c1.79,9.74,7.5,18.33,15.8,23.75
		c1.07,1.84,1.53,3.96,1.33,6.07c-0.53,5.6-5.5,9.72-11.1,9.19c10.89,4.51,23.41,2.15,31.9-6.02c14.12,2.07,28.49-1.23,40.3-9.24
		c16.73-10.92,21.43-33.34,10.5-50.06c-5.42-8.3-14-14.01-23.75-15.8H89.4z"></path>
</g>
<text transform="matrix(2.2486 0 0 1 83.4855 79.6504)" class="f105-1 f105-2 f105-3">i</text>
</svg>