<svg version="1.1" id="Layer_1" xmlns="http://www.w3.org/2000/svg" xmlns:xlink="http://www.w3.org/1999/xlink" x="0px" y="0px" viewBox="0 0 170.08 170.08" fill="CurrentColor" style="enable-background:new 0 0 170.08 170.08;" xml:space="preserve">

<g id="CIRCLE_00000103960692393147877390000005134182959286057375_">
	<circle class="st0" cx="72.46" cy="66.8" r="11.37"></circle>
</g>
<path class="st0" d="M40.51,43.22v105.91h126.7V43.22H40.51z M48.98,132.77c-1.43,0-2.58-1.16-2.58-2.58c0-1.43,1.16-2.58,2.58-2.58
	c1.43,0,2.58,1.16,2.58,2.58C51.56,131.61,50.41,132.77,48.98,132.77z M48.98,115.99c-1.43,0-2.58-1.16-2.58-2.58
	c0-1.43,1.16-2.58,2.58-2.58c1.43,0,2.58,1.16,2.58,2.58C51.56,114.83,50.41,115.99,48.98,115.99z M53.18,104.14
	c-1.24,0.9-2.97,0.63-3.88-0.61c-0.8-8.75,3.4-17.21,10.87-21.85c1.29-0.81,1.69-2.51,0.88-3.8c-0.09-0.14-0.19-0.28-0.3-0.4
	c-5.52-6.05-5.52-15.31,0-21.36c5.9-6.47,15.92-6.93,22.39-1.03c6.47,5.9,6.93,15.92,1.03,22.39c-1.03,1.13-0.95,2.87,0.18,3.9
	c0.12,0.11,0.26,0.21,0.4,0.3c7.39,4.6,11.59,12.95,10.88,21.63c-0.24,0.45-0.6,0.82-1.05,1.06c-1.24,0.67-2.79,0.2-3.45-1.04
	c1.06-10.31-6.44-19.53-16.76-20.59c-10.31-1.06-19.53,6.44-20.59,16.76c-0.14,1.33-0.13,2.68,0.02,4.01
	C53.63,103.75,53.42,103.97,53.18,104.14z M155.16,132.17h-99.1v-3.97h99.1V132.17z M155.16,115.39h-99.1v-3.97h99.1V115.39z"></path>
<path class="st0" d="M2.8,20.69v16.26H167.2V20.69H2.8z M16.86,31.4c-1.43,0-2.58-1.16-2.58-2.58c0-1.43,1.16-2.58,2.58-2.58
	s2.58,1.16,2.58,2.58C19.44,30.24,18.29,31.4,16.86,31.4z M29,31.4c-1.43,0-2.58-1.16-2.58-2.58c0-1.43,1.16-2.58,2.58-2.58
	c1.43,0,2.58,1.16,2.58,2.58C31.59,30.24,30.43,31.4,29,31.4z M41.15,31.4c-1.43,0-2.58-1.16-2.58-2.58c0-1.43,1.16-2.58,2.58-2.58
	c1.43,0,2.58,1.16,2.58,2.58C43.73,30.24,42.57,31.4,41.15,31.4z M155.73,30.7h-24.19v-3.97h24.19V30.7z"></path>
<path class="st0" d="M2.8,43.22v105.91h31.29V43.22H2.8z M29.28,132.17H7.6v-3.97h21.67V132.17z M29.28,115.39H7.6v-3.97h21.67
	V115.39z M29.28,98.61H7.6v-3.97h21.67V98.61z M29.28,81.83H7.6v-3.97h21.67V81.83z M29.28,65.05H7.6v-3.97h21.67V65.05z"></path>
<g>
	<path class="st1" d="M114.51,83.27c-0.38,1.36-1.14,3.59-1.63,4.5c-0.83,0.19-3.3,0.82-5.39,0.82c-7.24,0-10.47-4.95-10.47-9.43
		c0-5.98,4.67-9.9,11.19-9.9c2.4,0,4.43,0.68,5.22,0.82c0.23,1.61,0.43,2.83,0.6,4.44l-0.84,0.19c-0.77-3.14-2.65-4.39-5.71-4.39
		c-4.79,0-7.34,4-7.34,8.23c0,5.36,3.17,8.93,7.58,8.93c2.91,0,4.5-1.61,5.99-4.54L114.51,83.27z"></path>
	<path class="st1" d="M132.92,88.39c-0.34,0-0.66-0.02-1-0.06c-2.27-0.12-3.43-0.74-4.73-2.6c-0.96-1.38-1.88-3.11-2.72-4.46
		c-0.51-0.82-0.99-1.17-2.44-1.17h-0.79v4.43c0,2.39,0.26,2.6,2.51,2.79v0.82h-7.6v-0.82c2.27-0.19,2.53-0.41,2.53-2.79V73.27
		c0-2.43-0.24-2.58-2.42-2.74v-0.85h7.19c2.12,0,3.49,0.25,4.56,0.99c1.14,0.74,1.86,2,1.86,3.73c0,2.46-1.54,3.94-3.55,4.81
		c0.49,0.93,1.63,2.79,2.48,4.1c1.01,1.49,1.61,2.29,2.27,2.99c0.71,0.83,1.33,1.14,1.97,1.3L132.92,88.39z M122.5,79.15
		c1.41,0,2.35-0.23,3.06-0.82c1.07-0.85,1.5-1.96,1.5-3.49c0-3.05-1.93-4.17-4.02-4.17c-0.84,0-1.29,0.12-1.5,0.27
		c-0.19,0.16-0.3,0.49-0.3,1.22v6.99H122.5z"></path>
	<path class="st1" d="M149.71,88.14v-0.82c2.27-0.23,2.38-0.43,2.35-3.42l-0.09-11.39h-0.11l-6.87,15.45h-0.56L138.1,72.9h-0.07
		l-0.41,7.98c-0.11,2.35-0.11,3.55-0.06,4.68c0.06,1.34,0.71,1.53,2.57,1.73v0.85h-6.59v-0.85c1.61-0.16,2.16-0.56,2.38-1.69
		c0.15-0.99,0.32-2.21,0.54-5.26l0.41-5.71c0.24-3.69,0.08-3.84-2.44-4.1v-0.85h4.79l6.36,13.96l6.46-13.96h4.92v0.85
		c-2.46,0.21-2.63,0.31-2.53,3.12l0.26,10.25c0.09,2.99,0.17,3.18,2.61,3.42v0.82H149.71z"></path>
</g>
</svg>