<svg version="1.1" id="Layer_1" xmlns="http://www.w3.org/2000/svg" xmlns:xlink="http://www.w3.org/1999/xlink" x="0px" y="0px" viewBox="0 0 170.08 170.08" fill="CurrentColor" style="enable-background:new 0 0 170.08 170.08;" xml:space="preserve">

<g id="LWPOLYLINE_00000173157905803997079050000013419150598009082018_">
	<rect x="106.18" y="100.41" class="st0" width="56.66" height="14.04"></rect>
</g>
<g id="LWPOLYLINE_00000138537304460549970500000013355745889282376109_">
	<rect x="106.18" y="126.74" class="st0" width="56.66" height="14.04"></rect>
</g>
<g id="LWPOLYLINE_00000037662674525975115660000005491149317746055312_">
	<rect x="106.18" y="153.07" class="st0" width="56.66" height="14.04"></rect>
</g>
<g id="LWPOLYLINE_00000168100525747899629280000014208260108362274951_">
	<path class="st0" d="M59.77,2.71h57.29c3.5,0,6.35,2.84,6.35,6.35V29.7c0,3.5-2.84,6.35-6.35,6.35H59.77
		c-3.5,0-6.35-2.84-6.35-6.35V9.05C53.42,5.55,56.26,2.71,59.77,2.71z"></path>
</g>
<g id="LWPOLYLINE_00000084504231324360144010000002395133115035019906_">
	<path class="st0" d="M162.84,27.32c0-10.09-8.18-18.27-18.27-18.27h-10.49V29.7c0,9.4-7.62,17.02-17.02,17.02H59.77
		c-9.4,0-17.02-7.62-17.02-17.02V9.05H25.43c-10.09,0-18.27,8.18-18.27,18.27v121.52c0,10.09,8.18,18.27,18.27,18.27h68.45v-79
		h68.95C162.84,88.12,162.84,27.32,162.84,27.32z"></path>
</g>
</svg>