<svg version="1.1" id="Layer_1" xmlns="http://www.w3.org/2000/svg" xmlns:xlink="http://www.w3.org/1999/xlink" x="0px" y="0px" viewBox="0 0 170.08 170.08" fill="CurrentColor" style="enable-background:new 0 0 170.08 170.08;" xml:space="preserve">

<path class="st0" d="M160.46,31.95h-11.04v43.86h-5.16V13.96c0-1.21-0.98-2.18-2.18-2.18H98.91c-1.21,0-2.18,0.98-2.18,2.18v66.83
	c0,1.21,0.98,2.18,2.18,2.18h16.98l0.23-14.66h8.75v14.66h35.59c1.21,0,2.18-0.98,2.18-2.18V34.13
	C162.64,32.92,161.66,31.95,160.46,31.95z M116.2,60.75c0,0.43-0.35,0.78-0.78,0.78h-5.88c-0.43,0-0.78-0.35-0.78-0.78v-5.49
	c0-0.43,0.35-0.78,0.78-0.78h5.88c0.43,0,0.78,0.35,0.78,0.78V60.75z M116.2,45.89c0,0.43-0.35,0.78-0.78,0.78h-5.88
	c-0.43,0-0.78-0.35-0.78-0.78V40.4c0-0.43,0.35-0.78,0.78-0.78h5.88c0.43,0,0.78,0.35,0.78,0.78V45.89z M116.2,31.03
	c0,0.43-0.35,0.78-0.78,0.78h-5.88c-0.43,0-0.78-0.35-0.78-0.78v-5.49c0-0.43,0.35-0.78,0.78-0.78h5.88c0.43,0,0.78,0.35,0.78,0.78
	V31.03z M132.23,60.75c0,0.43-0.35,0.78-0.78,0.78h-5.88c-0.43,0-0.78-0.35-0.78-0.78v-5.49c0-0.43,0.35-0.78,0.78-0.78h5.88
	c0.43,0,0.78,0.35,0.78,0.78V60.75z M132.23,45.89c0,0.43-0.35,0.78-0.78,0.78h-5.88c-0.43,0-0.78-0.35-0.78-0.78V40.4
	c0-0.43,0.35-0.78,0.78-0.78h5.88c0.43,0,0.78,0.35,0.78,0.78V45.89z M132.23,31.03c0,0.43-0.35,0.78-0.78,0.78h-5.88
	c-0.43,0-0.78-0.35-0.78-0.78v-5.49c0-0.43,0.35-0.78,0.78-0.78h5.88c0.43,0,0.78,0.35,0.78,0.78V31.03z"></path>
<g id="LWPOLYLINE_00000181053704518840001700000011447634090553008043_">
	<path class="st0" d="M88.83,39.29c0,2.17-1.76,3.94-3.94,3.94H27.5c-0.12,0-0.22,0.1-0.22,0.22v74.03h115.44V94.57
		c0-0.65,0.16-1.29,0.47-1.86c1.03-1.92,3.42-2.63,5.33-1.6c1.28,0.69,2.07,2.02,2.07,3.47v26.32l15.39,24.79
		c0.8,1.28,1.22,2.76,1.22,4.27c0,4.47-3.62,8.09-8.09,8.09H10.89c-1.51,0-2.99-0.42-4.27-1.22c-3.8-2.36-4.96-7.35-2.61-11.15
		l15.39-24.79V43.45c0-4.47,3.62-8.09,8.09-8.09H84.9C87.07,35.36,88.83,37.12,88.83,39.29z"></path>
</g>
</svg>