<svg version="1.1" id="Layer_1" xmlns="http://www.w3.org/2000/svg" xmlns:xlink="http://www.w3.org/1999/xlink" x="0px" y="0px" viewBox="0 0 170.08 170.08" fill="CurrentColor" style="enable-background:new 0 0 170.08 170.08;" xml:space="preserve">

<g id="LWPOLYLINE">
	<path class="st0" d="M14.51,2.71h54.41c6.25,0,11.32,5.07,11.32,11.32v31.82c0,6.25-5.07,11.32-11.32,11.32H14.51
		c-6.25,0-11.32-5.07-11.32-11.32V14.03C3.18,7.78,8.25,2.71,14.51,2.71z"></path>
</g>
<g id="LWPOLYLINE_00000182511713233039988500000012440259957949115044_">
	<path class="st0" d="M14.51,66.67h54.41c6.25,0,11.32,5.07,11.32,11.32v77.8c0,6.25-5.07,11.32-11.32,11.32H14.51
		c-6.25,0-11.32-5.07-11.32-11.32V78C3.18,71.74,8.25,66.67,14.51,66.67z"></path>
</g>
<g id="LWPOLYLINE_00000031174046527204586960000009833435458836513968_">
	<path class="st0" d="M101.08,2.71h54.41c6.25,0,11.32,5.07,11.32,11.32v76.3c0,6.25-5.07,11.32-11.32,11.32h-54.41
		c-6.25,0-11.32-5.07-11.32-11.32v-76.3C89.75,7.78,94.82,2.71,101.08,2.71z"></path>
</g>
<g id="LWPOLYLINE_00000061439368935619285990000007892139207625042331_">
	<path class="st0" d="M101.08,111.15h54.41c6.25,0,11.32,5.07,11.32,11.32v33.32c0,6.25-5.07,11.32-11.32,11.32h-54.41
		c-6.25,0-11.32-5.07-11.32-11.32v-33.32C89.75,116.22,94.82,111.15,101.08,111.15z"></path>
</g>
</svg>