<svg version="1.1" id="Layer_1" xmlns="http://www.w3.org/2000/svg" xmlns:xlink="http://www.w3.org/1999/xlink" x="0px" y="0px" viewBox="0 0 170.08 170.08" fill="CurrentColor" style="enable-background:new 0 0 170.08 170.08;" xml:space="preserve">
<style type="text/css">
	.f16-1{fill:#FFFFFF;}
	.f16-2{fill:#FFFFFF;stroke:#FFFFFF;stroke-width:0.7087;stroke-linecap:round;stroke-linejoin:round;stroke-miterlimit:10;}
</style>
<path class="st0" d="M132.62,6.96H67.28c-8.53,0-15.44,6.91-15.44,15.44v12.64c4.79-0.75,9.66-0.75,14.45,0
	c25.39,3.99,42.74,27.81,38.75,53.2c-3.99,25.39-27.81,42.74-53.2,38.75v20.43c0,8.53,6.91,15.44,15.44,15.44h65.33
	c8.53,0,15.44-6.91,15.44-15.44V22.4C148.06,13.87,141.15,6.96,132.62,6.96z"></path>
<g id="LINE_00000178889074664845756910000002806113896282311298_">
	<path class="f16-1" d="M113.48,141.99H86.42c-3.17,0-5.75-2.57-5.75-5.75s2.57-5.75,5.75-5.75h27.06c3.17,0,5.75,2.57,5.75,5.75
		S116.66,141.99,113.48,141.99z"></path>
</g>
<g id="ARC_00000176030355458908007840000014178981387115578029_">
	<path class="st0" d="M67.52,116.2c2.2-7.85,10.21-12.55,18.13-10.64c4.58,1.11,9.2-1.71,10.3-6.3c0.69-2.86-0.14-5.87-2.2-7.97
		c-5.7-5.83-5.77-15.12-0.15-21.03c3.25-3.42,3.11-8.82-0.3-12.07c-2.13-2.03-5.15-2.81-8-2.08c-7.9,2.02-15.98-2.57-18.28-10.38
		c-1.33-4.52-6.08-7.11-10.61-5.77c-2.82,0.83-5.01,3.06-5.8,5.89c-2.2,7.85-10.21,12.55-18.13,10.64c-4.58-1.11-9.2,1.71-10.3,6.3
		c-0.69,2.86,0.14,5.87,2.2,7.97c5.7,5.83,5.77,15.12,0.15,21.03c-3.25,3.42-3.11,8.82,0.3,12.07c2.13,2.03,5.15,2.81,8,2.08
		c7.9-2.02,15.98,2.57,18.28,10.38c1.33,4.52,6.08,7.11,10.61,5.77C64.53,121.26,66.73,119.03,67.52,116.2z"></path>
</g>
<g id="CIRCLE_00000116228949776537329990000002273810510522653858_">
	<circle class="f16-2" cx="59.06" cy="81.02" r="10.08"></circle>
</g>
</svg>