<svg version="1.1" id="Layer_1" xmlns="http://www.w3.org/2000/svg" xmlns:xlink="http://www.w3.org/1999/xlink" x="0px" y="0px" viewBox="0 0 170.08 170.08" fill="CurrentColor" style="enable-background:new 0 0 170.08 170.08;" xml:space="preserve">

<g id="CIRCLE_00000005238948975470507540000000316557694784580993_">
	<circle class="st0" cx="26.59" cy="33.24" r="16.7"></circle>
</g>
<g id="LWPOLYLINE_00000007423990058000340240000001897713662811285921_">
	<path class="st0" d="M63.72,109.89c0-2.51,2.04-4.55,4.55-4.55h85.61c2.34,0,4.23-1.89,4.23-4.23V32.67c0-2.34-1.89-4.23-4.23-4.23
		H67.43c-2.51,0-4.55-2.04-4.55-4.55l0,0c0-2.51,2.04-4.55,4.55-4.55h86.45c7.36,0,13.33,5.97,13.33,13.33v68.44
		c0,7.36-5.97,13.33-13.33,13.33H68.27C65.75,114.44,63.72,112.4,63.72,109.89L63.72,109.89"></path>
</g>
<g id="LWPOLYLINE_00000152972014437363699800000003140320203400939686_">
	<path class="st0" d="M88.36,157.08l-3.19-2.77c-1.76-1.53-1.95-4.2-0.42-5.97l20.57-23.72c0.3-0.34,0.62-0.66,0.96-0.96
		c4-3.47,10.06-3.04,13.53,0.96l20.57,23.72c1.53,1.76,1.34,4.44-0.42,5.97l-3.19,2.77l-23.34-26.92c-0.41-0.47-1.13-0.52-1.6-0.11
		c-0.04,0.04-0.08,0.07-0.11,0.11L88.36,157.08z"></path>
</g>
<g id="LWPOLYLINE_00000069396272371685603130000004832924080318120092_">
	<path class="st0" d="M104.72,12.75h15.67c2.51,0,4.55,2.04,4.55,4.55v2.05h-24.77V17.3C100.17,14.79,102.2,12.75,104.72,12.75z"></path>
</g>
<g id="LWPOLYLINE_00000140725663609710480930000000535434166635673221_">
	<path class="st0" d="M26.59,60.16l3.71-7.11h48.22c4.35,0,7.87,3.52,7.87,7.87s-3.52,7.87-7.87,7.87H42.08v78.34
		c0,0.75-0.18,1.49-0.53,2.15l-1.88,3.59c-0.8,1.54-2.39,2.5-4.13,2.5h-2.43c-1.73,0-3.32-0.96-4.13-2.5l-2.41-4.61l-2.41,4.61
		c-0.8,1.54-2.39,2.5-4.13,2.5h-1.94c-1.73,0-3.32-0.96-4.13-2.5l-1.88-3.59c-0.35-0.67-0.53-1.4-0.53-2.15v-40.77H7.45
		c-2.57,0-4.65-2.08-4.65-4.65V57.7c0-2.57,2.08-4.65,4.65-4.65h15.43C22.88,53.05,26.59,60.16,26.59,60.16z"></path>
</g>
</svg>