<svg width="18" height="18" viewBox="0 0 18 18" fill="none" xmlns="http://www.w3.org/2000/svg" class="me-1"><path d="M8.963 0.000479156C6.62716 -0.0240639 4.37608 0.895108 2.69812 2.55858C1.02017 4.22205 0.0506815 6.49565 0 8.8861C0.073776 11.2688 1.05037 13.5287 2.72311 15.1874C4.39585 16.8462 6.63349 17.7737 8.9625 17.7737C11.2915 17.7737 13.5292 16.8462 15.2019 15.1874C16.8746 13.5287 17.8512 11.2688 17.925 8.8861C17.8743 6.49583 16.905 4.22239 15.2272 2.55894C13.5495 0.8955 11.2987 -0.0237927 8.963 0.000479156ZM14.363 14.9723C14.3144 13.7877 13.8941 12.6506 13.1644 11.7298C12.4347 10.8091 11.4344 10.1535 10.312 9.86054C10.9671 9.614 11.5314 9.16564 11.9271 8.57721C12.3229 7.98878 12.5308 7.28923 12.522 6.57488C12.491 5.62932 12.1023 4.73309 11.4379 4.07541C10.7734 3.41773 9.8853 3.05007 8.961 3.05007C8.0367 3.05007 7.14858 3.41773 6.48414 4.07541C5.81971 4.73309 5.43096 5.62932 5.4 6.57488C5.4158 7.28332 5.63335 7.97163 6.02594 8.55531C6.41853 9.13898 6.96908 9.59262 7.61 9.86054C6.47651 10.132 5.46338 10.7816 4.73003 11.7069C3.99667 12.6323 3.58472 13.781 3.559 14.9723C2.68088 14.2323 1.97292 13.3032 1.4855 12.2513C0.998087 11.1993 0.743207 10.0503 0.739 8.8861C0.773997 6.68856 1.66002 4.59515 3.20234 3.066C4.74465 1.53686 6.81704 0.6971 8.964 0.731309C11.111 0.6971 13.1834 1.53686 14.7257 3.066C16.268 4.59515 17.154 6.68856 17.189 8.8861C17.1848 10.0509 16.9294 11.2003 16.4411 12.2524C15.9528 13.3044 15.2425 14.2332 14.363 14.9723Z" fill="#0066FF"></path></svg>